<?xml version='1.0' encoding='utf-8'?>
<svg xmlns="http://www.w3.org/2000/svg" viewBox="0 0 70 175" width="70" height="175">
  <desc>Kynigos Law Firm — Favicon (Spearhead Mark)</desc>
  <!-- Spearhead mark in Oxblood -->
  <g transform="translate(0,0)" fill="#722F37">
    <path d="M35,0 L33,10 L31,25 L29,38 L27,50 L25,60 L22,75 L19,90 L16,102 L14,112 L12,120 L10,127 L9,132 L13,137 L18,143 L24,150 L27,155 L28,148 L29,138 L30,125 L31,110 L32,92 L33,72 L34,48 L35,42 L36,48 L37,72 L38,92 L39,110 L40,125 L41,138 L42,148 L43,155 L46,150 L52,143 L57,137 L61,132 L60,127 L58,120 L56,112 L54,102 L51,90 L48,75 L45,60 L43,50 L41,38 L39,25 L37,10 Z" />
    <path d="M6,163 L8,169 L62,169 L64,163 Z" />
  </g>
</svg>